<mxfile host="app.diagrams.net" modified="2021-10-26T02:54:44.692Z" agent="5.0 (Macintosh; Intel Mac OS X 10_15_7) AppleWebKit/537.36 (KHTML, like Gecko) Chrome/95.0.4638.54 Safari/537.36" etag="A8AGq2798idVuRMSpciD" version="15.5.9" type="github">
  <diagram id="8H1XneeFWaiy7EB0zFdO" name="Page-1">
    <mxGraphModel dx="1424" dy="1883" grid="1" gridSize="10" guides="1" tooltips="1" connect="1" arrows="1" fold="1" page="1" pageScale="1" pageWidth="827" pageHeight="1169" math="0" shadow="0">
      <root>
        <mxCell id="0" />
        <mxCell id="1" parent="0" />
        <mxCell id="z01FkmOm348wzUYE0Ynq-4" value="" style="edgeStyle=orthogonalEdgeStyle;rounded=0;orthogonalLoop=1;jettySize=auto;html=1;" edge="1" parent="1" source="z01FkmOm348wzUYE0Ynq-1" target="z01FkmOm348wzUYE0Ynq-3">
          <mxGeometry relative="1" as="geometry" />
        </mxCell>
        <mxCell id="z01FkmOm348wzUYE0Ynq-7" value="" style="edgeStyle=orthogonalEdgeStyle;rounded=0;orthogonalLoop=1;jettySize=auto;html=1;" edge="1" parent="1" source="z01FkmOm348wzUYE0Ynq-1" target="z01FkmOm348wzUYE0Ynq-6">
          <mxGeometry relative="1" as="geometry" />
        </mxCell>
        <mxCell id="z01FkmOm348wzUYE0Ynq-1" value="" style="rounded=0;whiteSpace=wrap;html=1;" vertex="1" parent="1">
          <mxGeometry x="380" y="200" width="120" height="60" as="geometry" />
        </mxCell>
        <mxCell id="z01FkmOm348wzUYE0Ynq-2" value="" style="rounded=1;whiteSpace=wrap;html=1;" vertex="1" parent="1">
          <mxGeometry x="380" y="480" width="120" height="60" as="geometry" />
        </mxCell>
        <mxCell id="z01FkmOm348wzUYE0Ynq-5" value="" style="edgeStyle=orthogonalEdgeStyle;rounded=0;orthogonalLoop=1;jettySize=auto;html=1;" edge="1" parent="1" source="z01FkmOm348wzUYE0Ynq-3" target="z01FkmOm348wzUYE0Ynq-2">
          <mxGeometry relative="1" as="geometry" />
        </mxCell>
        <mxCell id="z01FkmOm348wzUYE0Ynq-3" value="" style="whiteSpace=wrap;html=1;rounded=0;" vertex="1" parent="1">
          <mxGeometry x="380" y="340" width="120" height="60" as="geometry" />
        </mxCell>
        <mxCell id="z01FkmOm348wzUYE0Ynq-9" value="" style="edgeStyle=orthogonalEdgeStyle;rounded=0;orthogonalLoop=1;jettySize=auto;html=1;" edge="1" parent="1" source="z01FkmOm348wzUYE0Ynq-6" target="z01FkmOm348wzUYE0Ynq-8">
          <mxGeometry relative="1" as="geometry" />
        </mxCell>
        <mxCell id="z01FkmOm348wzUYE0Ynq-6" value="" style="rhombus;whiteSpace=wrap;html=1;rounded=0;" vertex="1" parent="1">
          <mxGeometry x="200" y="190" width="80" height="80" as="geometry" />
        </mxCell>
        <mxCell id="z01FkmOm348wzUYE0Ynq-11" value="" style="edgeStyle=orthogonalEdgeStyle;rounded=0;orthogonalLoop=1;jettySize=auto;html=1;" edge="1" parent="1" source="z01FkmOm348wzUYE0Ynq-8" target="z01FkmOm348wzUYE0Ynq-10">
          <mxGeometry relative="1" as="geometry" />
        </mxCell>
        <mxCell id="z01FkmOm348wzUYE0Ynq-8" value="" style="ellipse;whiteSpace=wrap;html=1;rounded=0;" vertex="1" parent="1">
          <mxGeometry x="180" y="40" width="120" height="60" as="geometry" />
        </mxCell>
        <mxCell id="z01FkmOm348wzUYE0Ynq-13" value="" style="edgeStyle=orthogonalEdgeStyle;rounded=0;orthogonalLoop=1;jettySize=auto;html=1;" edge="1" parent="1" source="z01FkmOm348wzUYE0Ynq-10" target="z01FkmOm348wzUYE0Ynq-12">
          <mxGeometry relative="1" as="geometry" />
        </mxCell>
        <mxCell id="z01FkmOm348wzUYE0Ynq-10" value="" style="whiteSpace=wrap;html=1;rounded=0;" vertex="1" parent="1">
          <mxGeometry x="180" y="-100" width="120" height="60" as="geometry" />
        </mxCell>
        <mxCell id="z01FkmOm348wzUYE0Ynq-15" value="" style="edgeStyle=orthogonalEdgeStyle;rounded=0;orthogonalLoop=1;jettySize=auto;html=1;" edge="1" parent="1" source="z01FkmOm348wzUYE0Ynq-12" target="z01FkmOm348wzUYE0Ynq-14">
          <mxGeometry relative="1" as="geometry" />
        </mxCell>
        <mxCell id="z01FkmOm348wzUYE0Ynq-12" value="" style="rhombus;whiteSpace=wrap;html=1;rounded=0;" vertex="1" parent="1">
          <mxGeometry x="400" y="-110" width="80" height="80" as="geometry" />
        </mxCell>
        <mxCell id="z01FkmOm348wzUYE0Ynq-17" value="" style="edgeStyle=orthogonalEdgeStyle;rounded=0;orthogonalLoop=1;jettySize=auto;html=1;" edge="1" parent="1" source="z01FkmOm348wzUYE0Ynq-14" target="z01FkmOm348wzUYE0Ynq-16">
          <mxGeometry relative="1" as="geometry" />
        </mxCell>
        <mxCell id="z01FkmOm348wzUYE0Ynq-14" value="" style="rhombus;whiteSpace=wrap;html=1;rounded=0;" vertex="1" parent="1">
          <mxGeometry x="400" y="-270" width="80" height="80" as="geometry" />
        </mxCell>
        <mxCell id="z01FkmOm348wzUYE0Ynq-16" value="" style="rhombus;whiteSpace=wrap;html=1;rounded=0;" vertex="1" parent="1">
          <mxGeometry x="400" y="-430" width="80" height="80" as="geometry" />
        </mxCell>
      </root>
    </mxGraphModel>
  </diagram>
</mxfile>
